<!-- Generated by IcoMoon.io -->
<svg version="1.1" xmlns="http://www.w3.org/2000/svg" width="28" height="32" viewBox="0 0 28 32">
<path d="M25.766 22.829l-0.179-0.222c-1.416-1.791-2.6-2.723-3.616-2.845-0.877-0.12-1.727 0.486-2.63 1.112l-0.965 0.603c-0.095 0.050-0.206 0.096-0.322 0.132l-0.015 0.004c-0.565 0.16-1.989 0.253-2.795-0.485-0.939-0.858-2.395-2.43-3.528-3.804-1.082-1.421-2.271-3.195-2.891-4.311-0.524-0.946-0.086-2.268 0.207-2.758 0.068-0.107 0.139-0.2 0.219-0.286l-0.001 0.001 0.851-0.786c0.012-0.012 0.018-0.028 0.029-0.039 0.008-0.008 0.022-0.005 0.031-0.012 0.769-0.648 1.563-1.315 1.672-2.173 0.127-1.007-0.499-2.37-1.918-4.16l-0.173-0.222c-0.877-1.125-2.206-2.828-4.114-2.548-0.75 0.111-1.42 0.367-2.112 0.801-0.006 0.004-0.010 0.012-0.017 0.017-0.005 0.004-0.012 0.004-0.018 0.008l-0.962 0.712c-0.010 0.006-0.015 0.019-0.025 0.027-0.007 0.006-0.018 0.008-0.026 0.014-0.131 0.11-0.24 0.205-0.347 0.301l0.013-0.012c-0.975 0.87-3.089 3.396-1.647 8.067 0.93 3.017 2.849 6.538 5.562 10.202l-0.026 0.022 1.496 1.863 0.012-0.009c2.942 3.479 5.935 6.169 8.678 7.797 1.83 1.088 3.429 1.447 4.745 1.447 1.731 0 2.972-0.622 3.593-1.027l0.392-0.261c0.043-0.031 0.074-0.072 0.106-0.111l0.852-0.642c0.010-0.008 0.015-0.019 0.025-0.027 0.004-0.004 0.011-0.003 0.017-0.007 0.606-0.553 1.026-1.132 1.317-1.819 0.756-1.761-0.597-3.448-1.492-4.563zM26.246 26.961c-0.227 0.534-0.557 0.988-1.037 1.429l-1.268 0.954c-1.148 0.746-3.603 1.668-7.167-0.449-2.743-1.628-5.762-4.381-8.733-7.961l-0.805-1.016c-2.797-3.711-4.766-7.264-5.695-10.276-1.208-3.915 0.314-6.016 1.332-6.922 0.103-0.093 0.206-0.181 0.31-0.267l0.003-0.004 0.924-0.684c0.478-0.319 1.046-0.546 1.657-0.641l0.024-0.003c1.279-0.192 2.319 1.156 3.083 2.137l0.179 0.227c1.586 1.999 1.738 2.95 1.689 3.338-0.055 0.431-0.71 0.983-1.288 1.469l-0.082 0.069-0.006 0.010-0.012 0.006-0.879 0.813c-0.006 0.005-0.008 0.012-0.014 0.019-0.005 0.007-0.017 0.010-0.022 0.017-0.125 0.138-0.24 0.29-0.34 0.451l-0.008 0.013c-0.494 0.827-0.961 2.536-0.225 3.86 0.643 1.156 1.866 2.982 2.991 4.457 1.175 1.426 2.674 3.045 3.646 3.933 0.728 0.664 1.74 0.888 2.618 0.888 0.469 0 0.9-0.065 1.226-0.157 0.207-0.062 0.383-0.134 0.551-0.219l-0.019 0.009c0.010-0.006 0.017-0.015 0.027-0.023 0.006-0.002 0.014-0.001 0.021-0.005l1.020-0.639c0.033-0.022 0.056-0.052 0.083-0.078l0.012 0.014c0.63-0.437 1.346-0.95 1.796-0.874 0.396 0.047 1.301 0.43 2.888 2.436l0.183 0.23c0.774 0.964 1.833 2.285 1.339 3.441z"></path>
</svg>
