<!-- Generated by IcoMoon.io -->
<svg version="1.1" xmlns="http://www.w3.org/2000/svg" width="40" height="32" viewBox="0 0 40 32">
<path d="M12.337 10.243h-12.51c-0.385 0-0.696 0.297-0.696 0.666v4.001c0 0.369 0.311 0.667 0.696 0.667h0.695v15.336c0 0.369 0.311 0.667 0.696 0.667h9.729c0.384 0 0.696-0.298 0.696-0.667v-15.336h0.695c0.384 0 0.695-0.298 0.695-0.667v-4c0-0.37-0.311-0.668-0.695-0.668zM4.692 22.912v-1.334h4.169v-1.334h-4.169v-1.334h5.56v8.668h-5.559v-3.334h1.39v-1.334h-1.391zM10.251 17.577h-6.254c-0.384 0-0.695 0.298-0.695 0.667v10.002c0 0.369 0.311 0.667 0.695 0.667h6.255v1.334h-8.341v-14.671h8.34v2zM11.642 14.244h-11.122v-2.667h11.122v2.667zM21.546 10.367v-4.875c-0.002-0.379-0.31-0.686-0.69-0.686-0.002 0-0.004 0-0.006 0h-0.694v-3.432h1.39v-1.374h-7.645v1.373h4.865v3.432h-0.696c-0.001 0-0.003-0-0.005-0-0.38 0-0.688 0.307-0.69 0.687v4.875c-1.584 0.319-2.78 1.704-2.78 3.363v17.163c0 0.38 0.311 0.687 0.696 0.687h8.34c0.001 0 0.003 0 0.005 0 0.38 0 0.688-0.307 0.69-0.687v-17.163c0-1.656-1.195-3.044-2.779-3.364zM18.766 6.179h1.39v4.12h-1.39v-4.12zM18.071 11.672h2.78c1.15 0 2.085 0.924 2.085 2.059v0.687h-6.95v-0.687c0-1.136 0.936-2.059 2.085-2.059zM22.936 27.462h-6.951v-1.373h2.78v-1.373h-2.78v-8.925h6.95v11.672zM15.986 30.208v-1.374h6.95v1.374h-6.95zM39.313 9.389h-11.729c-0.361 0.006-0.651 0.3-0.651 0.662 0 0.004 0 0.007 0 0.011v-0.001 20.847c0 0.372 0.292 0.673 0.651 0.673h11.729c0.36 0 0.651-0.301 0.651-0.673v-20.847c0-0.003 0-0.007 0-0.010 0-0.362-0.29-0.656-0.651-0.662h-0.001zM38.661 30.236h-10.425v-19.502h10.425v19.501z"></path>
<path d="M9.557 23.046h-1.737v0.854h1.737v-0.854zM21.72 24.753h-1.737v1.706h1.737v-1.706zM19.548 23.046c1.676 0 3.040-1.34 3.040-2.987s-1.364-2.987-3.040-2.987c-1.677 0-3.041 1.339-3.041 2.987s1.364 2.987 3.040 2.987zM19.548 18.565c0.838 0 1.52 0.669 1.52 1.494s-0.682 1.494-1.521 1.494c-0.838 0-1.52-0.67-1.52-1.494s0.681-1.494 1.52-1.494zM31.819 16.216h3.257c1.258 0 2.281-0.956 2.281-2.134s-1.023-2.134-2.281-2.134h-3.257c-1.257 0-2.28 0.957-2.28 2.135s1.023 2.134 2.28 2.134zM36.055 14.083c0 0.504-0.439 0.915-0.978 0.915h-0.977v-1.829h0.977c0.539 0 0.978 0.41 0.978 0.914zM31.819 13.169h0.977v1.829h-0.977c-0.539 0-0.978-0.41-0.978-0.915s0.439-0.914 0.978-0.914zM31.819 23.046h3.257c1.258 0 2.281-1.148 2.281-2.56s-1.023-2.562-2.281-2.562h-3.257c-1.257 0-2.28 1.148-2.28 2.561s1.023 2.56 2.28 2.56zM36.055 20.486c0 0.604-0.439 1.096-0.978 1.096h-0.977v-2.194h0.977c0.539 0 0.978 0.492 0.978 1.097zM31.819 19.387h0.977v2.195h-0.977c-0.539 0-0.978-0.492-0.978-1.097s0.439-1.097 0.978-1.097zM31.819 29.020h3.257c1.258 0 2.281-1.148 2.281-2.56s-1.023-2.561-2.281-2.561h-3.257c-1.257 0-2.28 1.148-2.28 2.56s1.023 2.561 2.28 2.561zM36.055 26.46c0 0.604-0.439 1.096-0.978 1.096h-0.977v-2.194h0.977c0.539 0 0.978 0.492 0.978 1.096zM31.819 25.363h0.977v2.194h-0.977c-0.539 0-0.978-0.492-0.978-1.097s0.439-1.096 0.978-1.096z"></path>
</svg>
