<!-- Generated by IcoMoon.io -->
<svg version="1.1" xmlns="http://www.w3.org/2000/svg" width="29" height="32" viewBox="0 0 29 32">
<path d="M14.347 0c-1.145 0-2.215 0.521-3.127 1.376s-1.692 2.044-2.342 3.485c-0.137 0.302-0.267 0.615-0.392 0.94-0.238-0.042-0.584-0.088-0.933-0.125l-0.078-0.007c-0.329-0.036-0.728-0.062-1.131-0.072l-0.020-0c-1.119-0.026-2.143 0.087-3.039 0.359-1.196 0.362-2.182 1.028-2.755 2.020s-0.656 2.179-0.372 3.396c0.284 1.216 0.924 2.487 1.847 3.771 0.193 0.269 0.4 0.54 0.618 0.81-0.213 0.263-0.419 0.533-0.617 0.808-0.923 1.284-1.563 2.555-1.847 3.772s-0.2 2.404 0.372 3.396c0.573 0.992 1.559 1.658 2.755 2.020s2.617 0.444 4.19 0.287c0.33-0.033 0.667-0.077 1.009-0.131 0.122 0.317 0.252 0.631 0.393 0.94 0.65 1.441 1.431 2.631 2.342 3.485s1.983 1.376 3.127 1.376c1.145 0 2.215-0.521 3.127-1.376s1.692-2.044 2.343-3.485c0.139-0.31 0.27-0.623 0.391-0.94 0.343 0.054 0.679 0.097 1.009 0.131 1.574 0.157 2.994 0.076 4.19-0.287s2.182-1.028 2.755-2.020 0.656-2.18 0.372-3.396c-0.284-1.216-0.924-2.487-1.847-3.772-0.23-0.319-0.433-0.582-0.643-0.839l0.025 0.031c0.215-0.264 0.421-0.535 0.62-0.809 0.922-1.284 1.563-2.556 1.847-3.772s0.201-2.404-0.372-3.396c-0.572-0.991-1.559-1.657-2.755-2.020-0.897-0.272-1.92-0.385-3.039-0.359-0.373 0.009-0.757 0.033-1.151 0.072-0.33 0.033-0.667 0.077-1.010 0.131-0.166-0.437-0.298-0.747-0.438-1.052l0.046 0.113c-0.65-1.441-1.431-2.631-2.343-3.485s-1.982-1.376-3.127-1.376zM14.347 1.274c0.764 0 1.513 0.336 2.256 1.031s1.452 1.749 2.053 3.080c0.097 0.217 0.191 0.436 0.279 0.657-1.46 0.324-3.007 0.823-4.588 1.488-1.58-0.665-3.127-1.164-4.587-1.488 0.090-0.225 0.183-0.445 0.279-0.657 0.601-1.331 1.31-2.384 2.053-3.080s1.491-1.031 2.256-1.031zM5.921 6.869c0.019-0 0.041-0 0.063-0 0.481 0 0.955 0.025 1.423 0.073l-0.059-0.005c0.233 0.023 0.47 0.052 0.711 0.087-0.449 1.427-0.791 3.015-1.005 4.717-1.367 1.036-2.572 2.127-3.583 3.229-0.148-0.187-0.292-0.378-0.431-0.571-0.852-1.185-1.409-2.327-1.641-3.318s-0.148-1.808 0.234-2.469c0.383-0.662 1.047-1.143 2.022-1.438 0.639-0.194 1.404-0.298 2.265-0.306zM22.773 6.869c0.861 0.007 1.626 0.112 2.265 0.305 0.975 0.296 1.639 0.777 2.022 1.439 0.381 0.662 0.465 1.478 0.234 2.469s-0.789 2.132-1.641 3.318c-0.14 0.193-0.284 0.384-0.431 0.571-1.011-1.102-2.215-2.192-3.582-3.229-0.215-1.702-0.556-3.29-1.006-4.717 0.241-0.035 0.478-0.065 0.71-0.087 0.41-0.044 0.885-0.069 1.366-0.069 0.022 0 0.044 0 0.065 0h-0.003zM19.369 7.254c0.318 0.954 0.606 2.118 0.809 3.311l0.020 0.146c-1.203-0.826-2.59-1.64-4.035-2.356l-0.202-0.091c0.932-0.367 2.072-0.715 3.243-0.979l0.165-0.031zM9.325 7.254c1.336 0.296 2.475 0.644 3.576 1.068l-0.169-0.057c-1.647 0.807-3.034 1.62-4.356 2.522l0.12-0.077c0.223-1.339 0.511-2.503 0.878-3.631l-0.049 0.175zM14.347 8.921c1.266 0.561 2.296 1.094 3.292 1.678l-0.154-0.083c1.151 0.666 2.114 1.301 3.040 1.984l-0.089-0.063c0.121 1.055 0.19 2.277 0.19 3.515s-0.069 2.461-0.203 3.663l0.013-0.148c-0.836 0.619-1.799 1.253-2.796 1.837l-0.154 0.083c-0.843 0.501-1.873 1.035-2.933 1.513l-0.206 0.083c-1.266-0.561-2.296-1.094-3.292-1.678l0.153 0.083c-1.151-0.666-2.114-1.301-3.040-1.983l0.090 0.063c-0.12-1.052-0.189-2.271-0.189-3.506 0-0.003 0-0.007 0-0.010v0.001c0-1.212 0.066-2.39 0.189-3.516 0.836-0.619 1.799-1.254 2.796-1.837l0.154-0.083c0.843-0.501 1.873-1.034 2.933-1.512l0.206-0.083zM14.433 10.839l-3.647 2.251 3.647 2.252 3.648-2.252-3.648-2.251zM6.881 13.507c-0.055 0.732-0.086 1.585-0.086 2.446s0.031 1.714 0.093 2.559l-0.007-0.113c-0.937-0.772-1.78-1.572-2.563-2.427l-0.017-0.019c0.8-0.874 1.642-1.674 2.537-2.412l0.042-0.034zM21.813 13.507c0.937 0.772 1.779 1.572 2.561 2.427l0.017 0.019c-0.799 0.874-1.641 1.673-2.536 2.411l-0.042 0.034c0.055-0.732 0.086-1.585 0.086-2.445s-0.031-1.713-0.093-2.558l0.007 0.113zM9.964 14.080v4.445l3.831 2.364v-4.444l-3.831-2.364zM18.899 14.082l-3.83 2.364v4.444l3.83-2.364v-4.444zM3.471 16.935c1.011 1.103 2.216 2.193 3.583 3.229 0.214 1.702 0.556 3.289 1.005 4.716-0.241 0.035-0.478 0.065-0.71 0.088-1.452 0.145-2.72 0.057-3.693-0.238-0.975-0.295-1.639-0.777-2.022-1.438s-0.465-1.479-0.234-2.47 0.788-2.132 1.64-3.317c0.169-0.236 0.31-0.421 0.455-0.604l-0.025 0.033zM25.223 16.935c0.151 0.191 0.295 0.382 0.431 0.571 0.852 1.185 1.409 2.326 1.641 3.317s0.147 1.808-0.235 2.47c-0.382 0.662-1.047 1.142-2.022 1.438-0.973 0.295-2.24 0.383-3.692 0.238-0.316-0.032-0.559-0.062-0.8-0.098l0.091 0.011c0.449-1.428 0.791-3.016 1.005-4.718 1.367-1.036 2.571-2.126 3.582-3.228zM20.199 21.195c-0.223 1.339-0.511 2.503-0.878 3.632l0.049-0.175c-1.336-0.296-2.476-0.644-3.577-1.068l0.169 0.057c1.647-0.807 3.035-1.621 4.357-2.523l-0.12 0.077zM8.497 21.196c1.202 0.826 2.589 1.639 4.033 2.355l0.202 0.091c-0.932 0.367-2.071 0.714-3.242 0.979l-0.165 0.031c-0.318-0.953-0.605-2.117-0.808-3.31l-0.020-0.146zM14.385 21.254l0.047 0.029 0.047-0.029h-0.093zM14.347 24.374c1.581 0.666 3.127 1.164 4.588 1.489-0.089 0.222-0.182 0.441-0.279 0.659-0.601 1.331-1.311 2.384-2.053 3.080s-1.492 1.031-2.256 1.031c-0.764 0-1.513-0.335-2.255-1.031s-1.452-1.749-2.053-3.080c-0.058-0.116-0.152-0.333-0.241-0.553l-0.038-0.106c1.46-0.325 3.007-0.823 4.588-1.488z"></path>
</svg>
