<!-- Generated by IcoMoon.io -->
<svg version="1.1" xmlns="http://www.w3.org/2000/svg" width="19" height="32" viewBox="0 0 19 32">
<path d="M17.882 0.236c-1.34-0.15-2.894-0.236-4.468-0.236-0.045 0-0.090 0-0.135 0l0.007-0c-5.091 0-8.253 3.243-8.253 8.461v3.543h-4.276c-0.418 0-0.756 0.338-0.757 0.756v5.827c0 0.418 0.339 0.757 0.757 0.757v0h4.276v11.684c0 0.418 0.339 0.757 0.757 0.757v0h6.020c0.418 0 0.757-0.339 0.757-0.757v0-11.684h4.262c0 0 0 0 0 0 0.383 0 0.7-0.285 0.75-0.654l0-0.004 0.752-5.827c0.004-0.030 0.006-0.064 0.006-0.099 0-0.418-0.339-0.757-0.757-0.757-0 0-0 0-0 0h-5.014v-2.965c0-1.468 0.295-2.081 2.131-2.081h3.087c0.418 0 0.757-0.339 0.757-0.757v0-5.214c0-0 0-0 0-0 0-0.383-0.285-0.7-0.655-0.75l-0.004-0zM17.027 5.443l-2.331 0.002c-3.265 0-3.644 2.052-3.644 3.594v3.723c0 0 0 0 0 0 0 0.417 0.338 0.756 0.755 0.757h4.913l-0.559 4.314h-4.353c-0.418 0-0.757 0.339-0.757 0.757v0 11.681h-4.506v-11.681c0-0.418-0.339-0.757-0.757-0.757v0h-4.275v-4.315h4.274c0.418 0 0.757-0.339 0.757-0.757v0-4.3c0-4.35 2.519-6.947 6.739-6.947 1.527 0 2.906 0.083 3.741 0.156v3.773z"></path>
</svg>
