<!-- Generated by IcoMoon.io -->
<svg version="1.1" xmlns="http://www.w3.org/2000/svg" width="32" height="32" viewBox="0 0 32 32">
<path d="M15.68 8.32c-4.065 0-7.36 3.295-7.36 7.36s3.295 7.36 7.36 7.36v0c4.065 0 7.36-3.295 7.36-7.36s-3.295-7.36-7.36-7.36v0zM15.68 21.12c-3.004 0-5.44-2.436-5.44-5.44s2.436-5.44 5.44-5.44c3.004 0 5.44 2.436 5.44 5.44v0c-0.009 3.001-2.439 5.431-5.439 5.44h-0.001zM22.72 0h-14.080c-4.772 0-8.64 3.868-8.64 8.64v0 14.080c0 4.772 3.868 8.64 8.64 8.64v0h14.080c4.772 0 8.64-3.868 8.64-8.64v0-14.080c0-4.772-3.868-8.64-8.64-8.64v0zM29.44 22.72c0 3.711-3.009 6.72-6.72 6.72v0h-14.080c-3.711 0-6.72-3.009-6.72-6.72v0-14.080c0-3.711 3.009-6.72 6.72-6.72v0h14.080c3.711 0 6.72 3.009 6.72 6.72v0 14.080zM25.6 7.36c0 0.884-0.716 1.6-1.6 1.6s-1.6-0.716-1.6-1.6v0c0-0.884 0.716-1.6 1.6-1.6s1.6 0.716 1.6 1.6v0z"></path>
</svg>
