<!-- Generated by IcoMoon.io -->
<svg version="1.1" xmlns="http://www.w3.org/2000/svg" width="64" height="32" viewBox="0 0 64 32">
<path d="M0.587-0h5.143c1.212 0 2.145 0.091 2.796 0.274 0.665 0.169 1.134 0.45 1.408 0.841 0.274 0.378 0.411 0.913 0.411 1.604v1.564c0 0.352-0.143 0.684-0.43 0.997-0.274 0.313-0.6 0.528-0.978 0.645v0.098c0.495 0.052 0.945 0.267 1.349 0.645 0.417 0.365 0.626 0.776 0.626 1.232v1.956c0 1.030-0.411 1.76-1.232 2.19s-2.092 0.645-3.813 0.645h-5.28v-12.692zM5.73 5.162c0.482 0 0.841-0.039 1.076-0.117s0.391-0.202 0.469-0.372c0.091-0.183 0.137-0.443 0.137-0.782v-0.626c0-0.3-0.039-0.521-0.117-0.665-0.078-0.156-0.241-0.267-0.489-0.332-0.235-0.065-0.613-0.098-1.134-0.098h-2.034v2.992h2.092zM5.808 10.521c0.743 0 1.271-0.085 1.584-0.254s0.469-0.443 0.469-0.821v-1.017c0-0.469-0.124-0.802-0.372-0.997-0.235-0.196-0.658-0.293-1.271-0.293h-2.581v3.383h2.171zM17.635 12.887c-3.351 0-5.026-1.023-5.026-3.070v-3.403c0-1.186 0.378-2.047 1.134-2.581 0.769-0.534 1.949-0.802 3.54-0.802 1.499 0 2.594 0.261 3.285 0.782 0.704 0.508 1.056 1.375 1.056 2.601v2.308h-6.14v0.86c0 0.548 0.196 0.939 0.587 1.173s1.095 0.352 2.112 0.352c0.939 0 1.995-0.137 3.168-0.411v1.819c-1.16 0.248-2.399 0.372-3.716 0.372zM18.906 7.098v-1.369c0-0.313-0.13-0.548-0.391-0.704-0.248-0.156-0.671-0.235-1.271-0.235-0.691 0-1.154 0.078-1.388 0.235-0.248 0.17-0.372 0.404-0.372 0.704v1.369h3.422zM26.485 12.887c-0.887 0-1.551-0.078-1.995-0.235-0.43-0.169-0.737-0.463-0.919-0.88-0.169-0.43-0.254-1.069-0.254-1.916 0-0.756 0.091-1.349 0.274-1.78 0.196-0.43 0.502-0.737 0.919-0.919 0.43-0.196 1.017-0.293 1.76-0.293h3.207v-0.645c0-0.404-0.059-0.704-0.176-0.9-0.104-0.196-0.306-0.332-0.606-0.411-0.287-0.078-0.724-0.117-1.31-0.117-0.808 0-1.916 0.078-3.324 0.235v-1.799c1.030-0.13 2.236-0.196 3.618-0.196 1.212 0 2.145 0.091 2.796 0.274 0.665 0.183 1.141 0.495 1.428 0.939s0.43 1.089 0.43 1.936v6.512h-2.796v-0.86c-0.222 0.378-0.521 0.645-0.9 0.802-0.378 0.169-1.095 0.254-2.151 0.254zM27.6 11.107c0.574 0 0.984-0.020 1.232-0.059 0.183-0.026 0.306-0.065 0.372-0.117 0.078-0.052 0.143-0.137 0.196-0.254 0.052-0.091 0.078-0.228 0.078-0.411v-1.838h-1.956c-0.443 0-0.756 0.033-0.939 0.098-0.183 0.052-0.306 0.169-0.372 0.352-0.065 0.169-0.098 0.476-0.098 0.919 0 0.43 0.033 0.73 0.098 0.9s0.189 0.28 0.372 0.332c0.196 0.052 0.535 0.078 1.017 0.078zM38.13 12.887c-1.212 0-2.066-0.215-2.562-0.645-0.482-0.443-0.724-1.134-0.724-2.073v-6.942h2.855v6.551c0 0.365 0.033 0.639 0.098 0.821 0.078 0.183 0.222 0.313 0.43 0.391 0.222 0.078 0.554 0.117 0.997 0.117 0.561 0 0.971-0.033 1.232-0.098 0.261-0.078 0.437-0.209 0.528-0.391s0.137-0.463 0.137-0.841v-6.551h2.855v9.465h-2.816v-1.154c-0.209 0.9-1.219 1.349-3.031 1.349zM51.207 12.887c-0.482 0-0.887-0.020-1.212-0.059s-0.652-0.117-0.978-0.235c-0.365-0.117-0.665-0.28-0.9-0.489-0.222-0.209-0.404-0.495-0.548-0.86-0.156-0.378-0.235-0.815-0.235-1.31v-4.948h-1.916v-1.76h1.916v-2.738h2.855v2.738h2.601v1.76h-2.601v4.459c0 0.456 0.039 0.802 0.117 1.036 0.078 0.222 0.228 0.385 0.45 0.489 0.222 0.091 0.561 0.137 1.017 0.137 0.182 0 0.521-0.033 1.017-0.098v1.78c-0.613 0.065-1.141 0.098-1.584 0.098zM57.117 12.613l-3.774-9.387h3.109l2.132 6.688 1.936-6.688h2.953l-5.182 13.532h-2.894l1.721-4.146zM0 29.5l6.61-8.663h-6.414v-2.171h10.169v1.838l-6.61 8.663h6.727v2.19h-10.482v-1.858zM16.98 31.554c-0.587 0-1.069-0.020-1.447-0.059s-0.782-0.117-1.212-0.235c-0.469-0.13-0.847-0.313-1.134-0.548-0.287-0.248-0.528-0.593-0.724-1.036-0.196-0.43-0.293-0.952-0.293-1.564v-2.796c0-0.626 0.098-1.173 0.293-1.643s0.45-0.834 0.763-1.095c0.274-0.222 0.632-0.404 1.076-0.548 0.456-0.156 0.9-0.254 1.33-0.293 0.495-0.026 0.945-0.039 1.349-0.039 0.6 0 1.076 0.020 1.428 0.059 0.365 0.026 0.763 0.104 1.193 0.235 0.469 0.143 0.847 0.339 1.134 0.587 0.3 0.248 0.554 0.6 0.763 1.056 0.196 0.469 0.293 1.030 0.293 1.682v2.796c0 0.587-0.098 1.102-0.293 1.545-0.183 0.443-0.424 0.789-0.724 1.036-0.261 0.222-0.619 0.404-1.076 0.548-0.443 0.13-0.88 0.215-1.31 0.254-0.391 0.039-0.86 0.059-1.408 0.059zM16.98 29.774c0.535 0 0.939-0.039 1.212-0.117 0.274-0.091 0.463-0.228 0.567-0.411 0.117-0.183 0.176-0.45 0.176-0.802v-3.579c0-0.521-0.137-0.887-0.411-1.095s-0.789-0.313-1.545-0.313c-0.756 0-1.271 0.104-1.545 0.313s-0.411 0.574-0.411 1.095v3.579c0 0.352 0.052 0.619 0.156 0.802 0.117 0.183 0.313 0.319 0.587 0.411 0.274 0.078 0.678 0.117 1.212 0.117zM24.016 21.893h2.816v1.154c0.222-0.9 1.232-1.349 3.031-1.349 1.212 0 2.060 0.222 2.542 0.665 0.495 0.43 0.743 1.115 0.743 2.053v6.942h-2.855v-6.571c0-0.365-0.039-0.639-0.117-0.821-0.065-0.183-0.209-0.313-0.43-0.391-0.209-0.078-0.535-0.117-0.978-0.117-0.561 0-0.971 0.039-1.232 0.117-0.261 0.065-0.437 0.189-0.528 0.372s-0.137 0.463-0.137 0.841v6.571h-2.855v-9.465zM40.398 31.554c-3.35 0-5.026-1.023-5.026-3.070v-3.403c0-1.186 0.378-2.047 1.134-2.581 0.769-0.535 1.949-0.802 3.54-0.802 1.499 0 2.594 0.261 3.285 0.782 0.704 0.508 1.056 1.375 1.056 2.601v2.308h-6.14v0.86c0 0.548 0.196 0.939 0.587 1.173s1.095 0.352 2.112 0.352c0.939 0 1.995-0.137 3.168-0.411v1.819c-1.16 0.248-2.399 0.372-3.716 0.372zM41.67 25.765v-1.369c0-0.313-0.13-0.548-0.391-0.704-0.248-0.156-0.671-0.235-1.271-0.235-0.691 0-1.154 0.078-1.388 0.235-0.248 0.169-0.372 0.404-0.372 0.704v1.369h3.422z"></path>
</svg>
