<svg xmlns="http://www.w3.org/2000/svg" width="43" height="36" fill="none" viewBox="0 0 43 36">
  <path fill="#2B7FFF" d="M42.016 8.382a2.532 2.532 0 0 0-1.325-.637 2.428 2.428 0 0 0-1.432.224l-9.468 4.62a.335.335 0 0 1-.276.03.348.348 0 0 1-.124-.073.387.387 0 0 1-.088-.122L23.772 1.493a2.764 2.764 0 0 0-.958-1.092A2.43 2.43 0 0 0 21.484 0a2.43 2.43 0 0 0-1.33.401c-.402.263-.733.64-.957 1.092l-5.531 10.931a.39.39 0 0 1-.089.122.348.348 0 0 1-.124.074.326.326 0 0 1-.275-.03L3.709 7.97a2.412 2.412 0 0 0-1.43-.233 2.513 2.513 0 0 0-1.324.634 2.91 2.91 0 0 0-.819 1.31 3.164 3.164 0 0 0-.064 1.588l4.781 22.337c.08.378.23.733.44 1.045.21.312.475.574.779.77.4.27.861.413 1.331.413.24-.003.48-.037.712-.104a45.837 45.837 0 0 1 26.72-.02c.34.108.698.14 1.05.091a2.488 2.488 0 0 0 1-.37 2.74 2.74 0 0 0 .785-.774c.211-.313.363-.671.445-1.05l4.763-22.338a3.12 3.12 0 0 0-.052-1.58 2.87 2.87 0 0 0-.81-1.307Zm-1.313 2.31-4.781 22.337a.478.478 0 0 1-.169.268.43.43 0 0 1-.3.041 47.875 47.875 0 0 0-27.938 0 .342.342 0 0 1-.295-.043.392.392 0 0 1-.112-.114.434.434 0 0 1-.061-.152L2.265 10.692a.475.475 0 0 1 .08-.354.404.404 0 0 1 .131-.116.365.365 0 0 1 .164-.046l.15.041 9.488 4.641a2.388 2.388 0 0 0 1.898.104 2.683 2.683 0 0 0 1.458-1.341l5.532-10.932a.38.38 0 0 1 .13-.158.333.333 0 0 1 .376 0 .381.381 0 0 1 .131.158l5.531 10.931c.315.634.836 1.113 1.458 1.342.622.23 1.3.192 1.898-.104l9.488-4.64a.344.344 0 0 1 .394.061.414.414 0 0 1 .12.186.453.453 0 0 1 .011.227ZM28.609 26.367a1.304 1.304 0 0 1-.37.79c-.208.206-.476.32-.755.323h-.112a53.518 53.518 0 0 0-11.775 0 1.054 1.054 0 0 1-.824-.265 1.275 1.275 0 0 1-.414-.828 1.346 1.346 0 0 1 .254-.907c.19-.255.462-.417.759-.454a52.683 52.683 0 0 1 12.225 0c.293.037.563.197.751.446.189.25.282.57.261.895Z"/>
</svg>
