<svg xmlns="http://www.w3.org/2000/svg" width="44" height="44" fill="none" viewBox="0 0 44 44">
  <foreignObject width="74.729" height="74.729" x="-15.364" y="-15.364">
    <div xmlns="http://www.w3.org/1999/xhtml" clip-path="url(#a)" style="backdrop-filter:blur(7.68px);height:100%;width:100%"/>
  </foreignObject>
  <circle cx="22" cy="22" r="21.616" fill="#fff" stroke="#011C44" stroke-width=".768" data-figma-bg-blur-radius="15.364" transform="matrix(-1 0 0 1 44 0)"/>
  <path fill="#011C44" d="M13.531 22.707a1 1 0 0 1 0-1.414l6.364-6.364a1 1 0 0 1 1.414 1.414L15.652 22l5.657 5.657a1 1 0 0 1-1.414 1.414l-6.364-6.364ZM31 23H14.238v-2H31v2Z"/>
  <defs>
    <clipPath id="a" transform="translate(15.364 15.364)">
      <circle cx="22" cy="22" r="21.616" transform="matrix(-1 0 0 1 44 0)"/>
    </clipPath>
  </defs>
</svg>
