<svg xmlns="http://www.w3.org/2000/svg" width="27" height="31" fill="none" viewBox="0 0 27 31">
  <path fill="#011C44" d="m24.961 22.116-.173-.215c-1.372-1.735-2.519-2.638-3.503-2.756-.85-.116-1.673.471-2.548 1.077l-.935.584a2.015 2.015 0 0 1-.326.132c-.547.155-1.927.245-2.708-.47-.91-.831-2.32-2.354-3.418-3.685-1.048-1.377-2.2-3.095-2.801-4.176-.508-.916-.083-2.197.201-2.672a1.85 1.85 0 0 1 .211-.276l.824-.761c.012-.012.017-.027.028-.038.008-.008.021-.005.03-.012.745-.628 1.514-1.274 1.62-2.105.123-.976-.483-2.296-1.858-4.03l-.168-.215C8.587 1.408 7.3-.242 5.452.03c-.727.108-1.376.356-2.046.776-.006.004-.01.012-.016.016-.005.004-.012.004-.017.008l-.932.69c-.01.006-.015.018-.024.026-.007.006-.017.008-.025.014a13.74 13.74 0 0 0-.323.28C1.124 2.683-.923 5.13.473 9.655c.901 2.923 2.76 6.334 5.388 9.883l-.025.021 1.449 1.805.012-.009c2.85 3.37 5.75 5.976 8.407 7.553 1.773 1.054 3.322 1.402 4.597 1.402 1.677 0 2.879-.603 3.481-.995l.38-.253c.042-.03.072-.07.103-.108l.825-.622c.01-.008.015-.018.024-.026.004-.004.011-.003.016-.007.587-.536.994-1.097 1.276-1.762.732-1.706-.578-3.34-1.445-4.42Zm.465 4.002c-.22.517-.54.957-1.005 1.384l-1.228.924c-1.112.723-3.49 1.616-6.943-.435-2.657-1.577-5.582-4.244-8.46-7.712l-.78-.984C4.3 15.7 2.393 12.258 1.493 9.34c-1.17-3.793.304-5.828 1.29-6.706.1-.09.2-.175.3-.259l.003-.004.895-.663a4.067 4.067 0 0 1 1.628-.624c1.239-.186 2.247 1.12 2.987 2.07l.173.22c1.536 1.937 1.684 2.858 1.636 3.234-.053.418-.688.952-1.248 1.423l-.079.067-.006.01-.012.006-.852.788c-.006.005-.008.012-.014.018-.005.007-.016.01-.021.016a2.995 2.995 0 0 0-.337.45c-.479.801-.931 2.457-.218 3.739.623 1.12 1.808 2.889 2.898 4.318 1.138 1.381 2.59 2.95 3.532 3.81.705.643 1.686.86 2.536.86.454 0 .872-.063 1.188-.152a3.2 3.2 0 0 0 .516-.204c.01-.006.016-.015.026-.022.006-.002.014-.001.02-.005l.988-.619c.032-.021.054-.05.08-.076l.012.014c.61-.423 1.304-.92 1.74-.847.384.046 1.26.417 2.798 2.36l.177.223c.75.934 1.776 2.214 1.297 3.333Z"/>
</svg>
