<svg xmlns="http://www.w3.org/2000/svg" width="40" height="44" fill="none" viewBox="0 0 40 44">
  <path fill="#2B7FFF" d="M19.727 0c-1.575 0-3.046.717-4.3 1.892-1.253 1.174-2.326 2.81-3.22 4.792-.188.415-.367.846-.539 1.292a24.807 24.807 0 0 0-1.39-.181 20.9 20.9 0 0 0-1.582-.1c-1.539-.036-2.946.12-4.179.494-1.644.498-3 1.414-3.788 2.778-.787 1.364-.902 2.996-.512 4.67.39 1.672 1.271 3.42 2.54 5.185.266.37.55.742.85 1.114-.293.362-.576.733-.849 1.111C1.489 24.813.609 26.56.218 28.233c-.39 1.674-.275 3.306.512 4.67.788 1.364 2.144 2.28 3.788 2.778 1.644.498 3.598.61 5.761.394.454-.046.917-.106 1.388-.18.168.436.347.867.54 1.293.894 1.982 1.967 3.618 3.22 4.792 1.254 1.175 2.726 1.892 4.3 1.892 1.575 0 3.046-.717 4.3-1.892 1.254-1.174 2.327-2.81 3.222-4.792.191-.426.371-.857.538-1.293.471.074.934.134 1.387.18 2.164.216 4.117.104 5.761-.394 1.644-.499 3-1.414 3.788-2.778.788-1.364.902-2.997.512-4.67-.39-1.672-1.27-3.42-2.54-5.186a23.99 23.99 0 0 0-.85-1.111c.295-.363.579-.735.852-1.113 1.268-1.766 2.149-3.514 2.539-5.187.39-1.673.276-3.305-.512-4.67-.787-1.363-2.144-2.279-3.788-2.777-1.233-.374-2.64-.53-4.179-.493-.513.012-1.041.045-1.582.099-.454.045-.917.106-1.389.18a24.889 24.889 0 0 0-.538-1.291c-.894-1.982-1.968-3.618-3.221-4.792C22.773.717 21.302 0 19.727 0Zm0 1.752c1.05 0 2.08.462 3.102 1.418 1.021.957 1.997 2.405 2.823 4.235.134.298.262.6.383.904-2.008.446-4.135 1.131-6.308 2.046-2.173-.915-4.3-1.6-6.307-2.046.124-.31.251-.612.383-.904.826-1.83 1.801-3.278 2.823-4.235 1.021-.957 2.05-1.418 3.102-1.418ZM8.141 9.445a18.733 18.733 0 0 1 1.963.094c.32.031.646.072.977.12-.617 1.962-1.087 4.146-1.382 6.486-1.88 1.425-3.536 2.924-4.926 4.44-.204-.257-.402-.52-.593-.785-1.172-1.63-1.938-3.199-2.256-4.562-.318-1.363-.203-2.486.322-3.395.526-.91 1.44-1.571 2.78-1.977.878-.267 1.93-.41 3.115-.421Zm23.172 0c1.184.01 2.236.154 3.115.42 1.34.407 2.254 1.068 2.78 1.978.524.91.64 2.032.322 3.395s-1.085 2.932-2.256 4.562c-.192.266-.39.528-.593.785-1.39-1.515-3.046-3.014-4.925-4.44-.295-2.34-.765-4.524-1.383-6.486.331-.048.657-.089.976-.12a18.784 18.784 0 0 1 1.964-.094Zm-4.68.529a34.013 34.013 0 0 1 1.14 4.753 47.628 47.628 0 0 0-5.826-3.364 33.99 33.99 0 0 1 4.686-1.39Zm-13.811 0a34 34 0 0 1 4.685 1.39 47.75 47.75 0 0 0-5.825 3.362 33.985 33.985 0 0 1 1.14-4.752Zm6.905 2.293a44.85 44.85 0 0 1 4.315 2.193 44.55 44.55 0 0 1 4.058 2.642 44.904 44.904 0 0 1 0 9.667 44.867 44.867 0 0 1-4.057 2.64 44.81 44.81 0 0 1-4.316 2.194 44.8 44.8 0 0 1-4.316-2.193 44.853 44.853 0 0 1-4.056-2.64 44.83 44.83 0 0 1-.26-4.834c0-1.666.091-3.286.26-4.835a44.85 44.85 0 0 1 4.056-2.641 44.858 44.858 0 0 1 4.316-2.193Zm.118 2.636-5.015 3.095 5.015 3.096 5.016-3.096-5.016-3.095ZM9.462 18.572a47.734 47.734 0 0 0 0 6.726 33.996 33.996 0 0 1-3.547-3.363 34.006 34.006 0 0 1 3.547-3.363Zm20.531 0a34.021 34.021 0 0 1 3.545 3.363 33.998 33.998 0 0 1-3.545 3.362 47.719 47.719 0 0 0 0-6.724ZM13.7 19.36v6.112l5.267 3.25v-6.111L13.7 19.36Zm12.286.003-5.266 3.25v6.11l5.266-3.251v-6.11ZM4.773 23.285c1.39 1.516 3.047 3.015 4.926 4.44.294 2.34.764 4.523 1.382 6.485-.331.048-.657.09-.976.121-1.997.2-3.74.079-5.078-.327-1.34-.406-2.254-1.068-2.78-1.977-.525-.91-.64-2.033-.322-3.396S3.009 25.7 4.18 24.07a22.1 22.1 0 0 1 .591-.785Zm29.908 0c.207.263.405.525.592.785 1.171 1.63 1.938 3.198 2.256 4.561.318 1.363.202 2.486-.323 3.396-.525.91-1.44 1.57-2.78 1.977-1.338.406-3.08.526-5.077.327a22.753 22.753 0 0 1-.975-.12c.617-1.963 1.088-4.147 1.382-6.487 1.879-1.425 3.535-2.923 4.925-4.439Zm-6.908 5.858a34.018 34.018 0 0 1-1.14 4.753 34.003 34.003 0 0 1-4.686-1.39 47.78 47.78 0 0 0 5.826-3.363Zm-16.09.001a47.604 47.604 0 0 0 5.823 3.363 33.991 33.991 0 0 1-4.685 1.389 34.005 34.005 0 0 1-1.139-4.752Zm8.096.08.064.04.064-.04h-.128Zm-.052 4.29c2.174.916 4.3 1.6 6.309 2.047-.122.305-.25.607-.384.906-.826 1.83-1.802 3.278-2.823 4.235-1.021.957-2.051 1.418-3.102 1.418-1.05 0-2.08-.461-3.101-1.418-1.022-.957-1.997-2.405-2.823-4.235a21.75 21.75 0 0 1-.384-.906c2.008-.447 4.134-1.132 6.308-2.046Z"/>
</svg>
