<svg xmlns="http://www.w3.org/2000/svg" width="17" height="28" fill="none" viewBox="0 0 17 28">
  <path fill="#011C44" d="M15.753.208A37.308 37.308 0 0 0 11.704 0c-4.484 0-7.27 2.856-7.27 7.454v3.12H.666a.667.667 0 0 0-.667.668v5.133a.666.666 0 0 0 .667.666h3.766v10.294A.666.666 0 0 0 5.1 28h5.304a.666.666 0 0 0 .667-.666V17.04h3.754a.667.667 0 0 0 .662-.58l.662-5.133a.665.665 0 0 0-.661-.753h-4.417V7.963c0-1.293.26-1.833 1.877-1.833h2.719a.667.667 0 0 0 .666-.667V.87a.667.667 0 0 0-.58-.662ZM15 4.795l-2.053.001c-2.876 0-3.21 1.808-3.21 3.167v3.28a.667.667 0 0 0 .666.666h4.328l-.492 3.8h-3.835a.666.666 0 0 0-.667.667v10.29h-3.97v-10.29a.667.667 0 0 0-.667-.667H1.335v-3.8H5.1a.666.666 0 0 0 .667-.666v-3.79c0-3.831 2.22-6.12 5.937-6.12 1.345 0 2.56.074 3.296.138v3.324Z"/>
</svg>
