<svg aria-hidden="true" style="position: absolute; width: 0; height: 0; overflow: hidden;" version="1.1" xmlns="http://www.w3.org/2000/svg" xmlns:xlink="http://www.w3.org/1999/xlink">
<defs>
<symbol id="icon-arrow-left" viewBox="0 0 32 32">
<path d="M26.209 23.222l-0.182-0.227c-1.44-1.821-2.645-2.769-3.678-2.894-0.894-0.122-1.758 0.496-2.676 1.131l-0.981 0.614c-0.097 0.050-0.211 0.097-0.329 0.134l-0.015 0.004c-0.574 0.162-2.022 0.258-2.842-0.493-0.955-0.874-2.436-2.472-3.589-3.87-1.1-1.446-2.31-3.25-2.941-4.385-0.534-0.962-0.087-2.307 0.211-2.806 0.058-0.098 0.136-0.194 0.221-0.29l0.866-0.8c0.013-0.012 0.018-0.028 0.030-0.039 0.008-0.008 0.022-0.006 0.032-0.012 0.781-0.66 1.589-1.338 1.699-2.211 0.13-1.024-0.506-2.41-1.95-4.23l-0.176-0.227c-0.894-1.145-2.246-2.877-4.186-2.59-0.762 0.113-1.443 0.373-2.146 0.814-0.007 0.004-0.011 0.012-0.017 0.016s-0.013 0.005-0.018 0.009l-0.978 0.726c-0.010 0.006-0.016 0.018-0.026 0.026-0.006 0.007-0.018 0.008-0.026 0.016-0.131 0.11-0.242 0.206-0.35 0.304l0.012-0.010c-0.993 0.885-3.142 3.454-1.677 8.205 0.946 3.069 2.898 6.65 5.658 10.377l-0.027 0.022 1.522 1.896 0.012-0.010c2.992 3.539 6.037 6.274 8.827 7.93 1.862 1.106 3.489 1.472 4.827 1.472 1.762 0 3.022-0.633 3.656-1.045l0.397-0.266c0.045-0.031 0.078-0.074 0.11-0.114l0.866-0.653c0.010-0.008 0.016-0.019 0.026-0.028 0.004-0.004 0.011-0.002 0.016-0.006 0.616-0.563 1.043-1.152 1.34-1.851 0.769-1.79-0.608-3.506-1.518-4.641zM26.698 27.424c-0.231 0.543-0.568 1.005-1.056 1.453l-1.289 0.97c-1.168 0.758-3.664 1.696-7.29-0.456-2.79-1.656-5.862-4.456-8.885-8.098l-0.818-1.033c-2.846-3.774-4.848-7.39-5.793-10.453-1.228-3.982 0.319-6.119 1.355-7.042 0.104-0.096 0.21-0.184 0.314-0.272l0.004-0.004 0.939-0.696c0.571-0.361 1.101-0.562 1.71-0.655 1.301-0.196 2.359 1.176 3.136 2.173l0.182 0.232c1.613 2.034 1.768 3.001 1.718 3.396-0.056 0.438-0.722 1-1.31 1.494l-0.083 0.070-0.006 0.010-0.013 0.006-0.894 0.828c-0.006 0.006-0.008 0.012-0.014 0.019s-0.016 0.010-0.022 0.017c-0.128 0.14-0.245 0.294-0.347 0.459l-0.008 0.013c-0.502 0.842-0.977 2.58-0.228 3.926 0.654 1.176 1.898 3.034 3.042 4.534 1.195 1.45 2.72 3.097 3.709 4 0.74 0.676 1.77 0.903 2.662 0.903 0.478 0 0.916-0.066 1.248-0.16 0.21-0.063 0.39-0.136 0.561-0.223l-0.019 0.009c0.011-0.006 0.016-0.015 0.028-0.022 0.006-0.002 0.014-0.001 0.019-0.006l1.039-0.65c0.034-0.022 0.056-0.051 0.084-0.080l0.012 0.014c0.64-0.444 1.37-0.965 1.826-0.889 0.405 0.049 1.323 0.438 2.939 2.478l0.186 0.234c0.787 0.981 1.865 2.325 1.362 3.5z"></path>
</symbol>
<symbol id="icon-arrow-right" viewBox="0 0 32 32">
<path d="M26.209 23.222l-0.182-0.227c-1.44-1.821-2.645-2.769-3.678-2.894-0.894-0.122-1.758 0.496-2.676 1.131l-0.981 0.614c-0.097 0.050-0.211 0.097-0.329 0.134l-0.015 0.004c-0.574 0.162-2.022 0.258-2.842-0.493-0.955-0.874-2.436-2.472-3.589-3.87-1.1-1.446-2.31-3.25-2.941-4.385-0.534-0.962-0.087-2.307 0.211-2.806 0.058-0.098 0.136-0.194 0.221-0.29l0.866-0.8c0.013-0.012 0.018-0.028 0.030-0.039 0.008-0.008 0.022-0.006 0.032-0.012 0.781-0.66 1.589-1.338 1.699-2.211 0.13-1.024-0.506-2.41-1.95-4.23l-0.176-0.227c-0.894-1.145-2.246-2.877-4.186-2.59-0.762 0.113-1.443 0.373-2.146 0.814-0.007 0.004-0.011 0.012-0.017 0.016s-0.013 0.005-0.018 0.009l-0.978 0.726c-0.010 0.006-0.016 0.018-0.026 0.026-0.006 0.007-0.018 0.008-0.026 0.016-0.131 0.11-0.242 0.206-0.35 0.304l0.012-0.010c-0.993 0.885-3.142 3.454-1.677 8.205 0.946 3.069 2.898 6.65 5.658 10.377l-0.027 0.022 1.522 1.896 0.012-0.010c2.992 3.539 6.037 6.274 8.827 7.93 1.862 1.106 3.489 1.472 4.827 1.472 1.762 0 3.022-0.633 3.656-1.045l0.397-0.266c0.045-0.031 0.078-0.074 0.11-0.114l0.866-0.653c0.010-0.008 0.016-0.019 0.026-0.028 0.004-0.004 0.011-0.002 0.016-0.006 0.616-0.563 1.043-1.152 1.34-1.851 0.769-1.79-0.608-3.506-1.518-4.641zM26.698 27.424c-0.231 0.543-0.568 1.005-1.056 1.453l-1.289 0.97c-1.168 0.758-3.664 1.696-7.29-0.456-2.79-1.656-5.862-4.456-8.885-8.098l-0.818-1.033c-2.846-3.774-4.848-7.39-5.793-10.453-1.228-3.982 0.319-6.119 1.355-7.042 0.104-0.096 0.21-0.184 0.314-0.272l0.004-0.004 0.939-0.696c0.571-0.361 1.101-0.562 1.71-0.655 1.301-0.196 2.359 1.176 3.136 2.173l0.182 0.232c1.613 2.034 1.768 3.001 1.718 3.396-0.056 0.438-0.722 1-1.31 1.494l-0.083 0.070-0.006 0.010-0.013 0.006-0.894 0.828c-0.006 0.006-0.008 0.012-0.014 0.019s-0.016 0.010-0.022 0.017c-0.128 0.14-0.245 0.294-0.347 0.459l-0.008 0.013c-0.502 0.842-0.977 2.58-0.228 3.926 0.654 1.176 1.898 3.034 3.042 4.534 1.195 1.45 2.72 3.097 3.709 4 0.74 0.676 1.77 0.903 2.662 0.903 0.478 0 0.916-0.066 1.248-0.16 0.21-0.063 0.39-0.136 0.561-0.223l-0.019 0.009c0.011-0.006 0.016-0.015 0.028-0.022 0.006-0.002 0.014-0.001 0.019-0.006l1.039-0.65c0.034-0.022 0.056-0.051 0.084-0.080l0.012 0.014c0.64-0.444 1.37-0.965 1.826-0.889 0.405 0.049 1.323 0.438 2.939 2.478l0.186 0.234c0.787 0.981 1.865 2.325 1.362 3.5z"></path>
</symbol>
<symbol id="icon-advantages" viewBox="0 0 38 32">
<path d="M37.348 7.451c-0.316-0.291-0.719-0.493-1.165-0.565l-0.013-0.002c-0.096-0.015-0.206-0.024-0.318-0.024-0.348 0-0.676 0.082-0.967 0.228l0.012-0.006-8.416 4.107c-0.043 0.026-0.096 0.042-0.152 0.042-0.033 0-0.066-0.005-0.095-0.016l0.002 0.001c-0.043-0.015-0.079-0.037-0.11-0.065l0 0c-0.032-0.030-0.059-0.066-0.077-0.106l-0.001-0.002-4.916-9.716c-0.198-0.399-0.488-0.727-0.843-0.965l-0.009-0.006c-0.333-0.222-0.742-0.355-1.182-0.356h-0c-0.44 0.001-0.849 0.134-1.19 0.361l0.008-0.005c-0.357 0.234-0.652 0.569-0.851 0.971l-4.916 9.716c-0.020 0.042-0.047 0.078-0.079 0.108l-0 0c-0.031 0.028-0.067 0.051-0.108 0.065l-0.002 0.001c-0.028 0.010-0.060 0.016-0.094 0.016-0.056 0-0.108-0.016-0.152-0.043l0.001 0.001-8.417-4.107c-0.281-0.144-0.613-0.229-0.964-0.229-0.108 0-0.215 0.008-0.318 0.023l0.012-0.001c-0.459 0.071-0.861 0.273-1.178 0.565l0.002-0.001c-0.335 0.309-0.587 0.702-0.723 1.146l-0.005 0.018c-0.077 0.244-0.121 0.525-0.121 0.815 0 0.211 0.023 0.417 0.067 0.615l-0.004-0.019 4.25 19.855c0.071 0.336 0.204 0.652 0.391 0.929s0.422 0.51 0.692 0.684c0.356 0.24 0.765 0.367 1.183 0.367 0.213-0.003 0.427-0.033 0.633-0.092 3.561-1.128 7.657-1.778 11.905-1.778 4.226 0 8.302 0.643 12.135 1.838l-0.289-0.078c0.302 0.096 0.62 0.124 0.933 0.081 0.335-0.048 0.635-0.164 0.897-0.334l-0.009 0.005c0.279-0.183 0.511-0.412 0.692-0.679l0.005-0.009c0.188-0.278 0.323-0.596 0.396-0.933l4.234-19.856c0.044-0.184 0.069-0.396 0.069-0.614 0-0.282-0.042-0.554-0.12-0.81l0.005 0.020c-0.137-0.461-0.387-0.854-0.718-1.16l-0.002-0.002zM36.18 9.504l-4.25 19.855c-0.023 0.097-0.076 0.179-0.149 0.238l-0.001 0.001c-0.053 0.029-0.115 0.046-0.182 0.046-0.030 0-0.059-0.003-0.087-0.010l0.003 0c-3.715-1.175-7.987-1.852-12.417-1.852s-8.702 0.677-12.718 1.933l0.301-0.081c-0.027 0.009-0.059 0.014-0.092 0.014-0.064 0-0.123-0.020-0.172-0.053l0.001 0.001c-0.040-0.027-0.073-0.061-0.099-0.1l-0.001-0.001c-0.025-0.039-0.044-0.084-0.054-0.133l-0-0.002-4.251-19.855c-0.004-0.021-0.006-0.046-0.006-0.071 0-0.091 0.029-0.176 0.078-0.245l-0.001 0.001c0.031-0.042 0.070-0.077 0.115-0.102l0.002-0.001c0.042-0.024 0.092-0.039 0.145-0.041l0.001-0 0.133 0.036 8.434 4.125c0.277 0.142 0.604 0.225 0.95 0.225 0.265 0 0.518-0.048 0.752-0.137l-0.015 0.005c0.573-0.223 1.028-0.645 1.29-1.178l0.006-0.014 4.917-9.717c0.026-0.058 0.065-0.105 0.114-0.14l0.001-0.001c0.047-0.032 0.105-0.052 0.167-0.052s0.12 0.019 0.168 0.052l-0.001-0.001c0.051 0.035 0.090 0.083 0.116 0.138l0.001 0.002 4.916 9.716c0.28 0.564 0.743 0.989 1.296 1.193s1.156 0.171 1.687-0.092l8.434-4.124c0.040-0.020 0.087-0.032 0.137-0.032 0.083 0 0.158 0.033 0.213 0.087l-0-0c0.049 0.044 0.086 0.099 0.106 0.163l0.001 0.003c0.012 0.036 0.018 0.077 0.018 0.12 0 0.029-0.003 0.057-0.009 0.085l0-0.003zM25.43 23.437c-0.028 0.276-0.148 0.519-0.329 0.702l0-0c-0.185 0.183-0.423 0.284-0.671 0.287h-0.1c-1.57-0.184-3.39-0.289-5.233-0.289s-3.663 0.105-5.452 0.309l0.219-0.020c-0.031 0.004-0.068 0.006-0.105 0.006-0.242 0-0.462-0.092-0.629-0.242l0.001 0.001c-0.204-0.185-0.34-0.443-0.368-0.731l-0-0.005c-0.003-0.030-0.004-0.065-0.004-0.101 0-0.265 0.086-0.51 0.232-0.709l-0.002 0.003c0.169-0.227 0.411-0.371 0.675-0.404 1.631-0.201 3.519-0.316 5.433-0.316s3.802 0.115 5.657 0.338l-0.224-0.022c0.26 0.033 0.5 0.175 0.668 0.396s0.251 0.507 0.232 0.796z"></path>
</symbol>
<symbol id="icon-call" viewBox="0 0 28 32">
<path d="M25.766 22.829l-0.179-0.222c-1.416-1.791-2.6-2.723-3.616-2.845-0.877-0.12-1.727 0.486-2.63 1.112l-0.965 0.603c-0.095 0.050-0.206 0.096-0.322 0.132l-0.015 0.004c-0.565 0.16-1.989 0.253-2.795-0.485-0.939-0.858-2.395-2.43-3.528-3.804-1.082-1.421-2.271-3.195-2.891-4.311-0.524-0.946-0.086-2.268 0.207-2.758 0.068-0.107 0.139-0.2 0.219-0.286l-0.001 0.001 0.851-0.786c0.012-0.012 0.018-0.028 0.029-0.039 0.008-0.008 0.022-0.005 0.031-0.012 0.769-0.648 1.563-1.315 1.672-2.173 0.127-1.007-0.499-2.37-1.918-4.16l-0.173-0.222c-0.877-1.125-2.206-2.828-4.114-2.548-0.75 0.111-1.42 0.367-2.112 0.801-0.006 0.004-0.010 0.012-0.017 0.017-0.005 0.004-0.012 0.004-0.018 0.008l-0.962 0.712c-0.010 0.006-0.015 0.019-0.025 0.027-0.007 0.006-0.018 0.008-0.026 0.014-0.131 0.11-0.24 0.205-0.347 0.301l0.013-0.012c-0.975 0.87-3.089 3.396-1.647 8.067 0.93 3.017 2.849 6.538 5.562 10.202l-0.026 0.022 1.496 1.863 0.012-0.009c2.942 3.479 5.935 6.169 8.678 7.797 1.83 1.088 3.429 1.447 4.745 1.447 1.731 0 2.972-0.622 3.593-1.027l0.392-0.261c0.043-0.031 0.074-0.072 0.106-0.111l0.852-0.642c0.010-0.008 0.015-0.019 0.025-0.027 0.004-0.004 0.011-0.003 0.017-0.007 0.606-0.553 1.026-1.132 1.317-1.819 0.756-1.761-0.597-3.448-1.492-4.563zM26.246 26.961c-0.227 0.534-0.557 0.988-1.037 1.429l-1.268 0.954c-1.148 0.746-3.603 1.668-7.167-0.449-2.743-1.628-5.762-4.381-8.733-7.961l-0.805-1.016c-2.797-3.711-4.766-7.264-5.695-10.276-1.208-3.915 0.314-6.016 1.332-6.922 0.103-0.093 0.206-0.181 0.31-0.267l0.003-0.004 0.924-0.684c0.478-0.319 1.046-0.546 1.657-0.641l0.024-0.003c1.279-0.192 2.319 1.156 3.083 2.137l0.179 0.227c1.586 1.999 1.738 2.95 1.689 3.338-0.055 0.431-0.71 0.983-1.288 1.469l-0.082 0.069-0.006 0.010-0.012 0.006-0.879 0.813c-0.006 0.005-0.008 0.012-0.014 0.019-0.005 0.007-0.017 0.010-0.022 0.017-0.125 0.138-0.24 0.29-0.34 0.451l-0.008 0.013c-0.494 0.827-0.961 2.536-0.225 3.86 0.643 1.156 1.866 2.982 2.991 4.457 1.175 1.426 2.674 3.045 3.646 3.933 0.728 0.664 1.74 0.888 2.618 0.888 0.469 0 0.9-0.065 1.226-0.157 0.207-0.062 0.383-0.134 0.551-0.219l-0.019 0.009c0.010-0.006 0.017-0.015 0.027-0.023 0.006-0.002 0.014-0.001 0.021-0.005l1.020-0.639c0.033-0.022 0.056-0.052 0.083-0.078l0.012 0.014c0.63-0.437 1.346-0.95 1.796-0.874 0.396 0.047 1.301 0.43 2.888 2.436l0.183 0.23c0.774 0.964 1.833 2.285 1.339 3.441z"></path>
</symbol>
<symbol id="icon-equipment" viewBox="0 0 40 32">
<path d="M12.337 10.243h-12.51c-0.385 0-0.696 0.297-0.696 0.666v4.001c0 0.369 0.311 0.667 0.696 0.667h0.695v15.336c0 0.369 0.311 0.667 0.696 0.667h9.729c0.384 0 0.696-0.298 0.696-0.667v-15.336h0.695c0.384 0 0.695-0.298 0.695-0.667v-4c0-0.37-0.311-0.668-0.695-0.668zM4.692 22.912v-1.334h4.169v-1.334h-4.169v-1.334h5.56v8.668h-5.559v-3.334h1.39v-1.334h-1.391zM10.251 17.577h-6.254c-0.384 0-0.695 0.298-0.695 0.667v10.002c0 0.369 0.311 0.667 0.695 0.667h6.255v1.334h-8.341v-14.671h8.34v2zM11.642 14.244h-11.122v-2.667h11.122v2.667zM21.546 10.367v-4.875c-0.002-0.379-0.31-0.686-0.69-0.686-0.002 0-0.004 0-0.006 0h-0.694v-3.432h1.39v-1.374h-7.645v1.373h4.865v3.432h-0.696c-0.001 0-0.003-0-0.005-0-0.38 0-0.688 0.307-0.69 0.687v4.875c-1.584 0.319-2.78 1.704-2.78 3.363v17.163c0 0.38 0.311 0.687 0.696 0.687h8.34c0.001 0 0.003 0 0.005 0 0.38 0 0.688-0.307 0.69-0.687v-17.163c0-1.656-1.195-3.044-2.779-3.364zM18.766 6.179h1.39v4.12h-1.39v-4.12zM18.071 11.672h2.78c1.15 0 2.085 0.924 2.085 2.059v0.687h-6.95v-0.687c0-1.136 0.936-2.059 2.085-2.059zM22.936 27.462h-6.951v-1.373h2.78v-1.373h-2.78v-8.925h6.95v11.672zM15.986 30.208v-1.374h6.95v1.374h-6.95zM39.313 9.389h-11.729c-0.361 0.006-0.651 0.3-0.651 0.662 0 0.004 0 0.007 0 0.011v-0.001 20.847c0 0.372 0.292 0.673 0.651 0.673h11.729c0.36 0 0.651-0.301 0.651-0.673v-20.847c0-0.003 0-0.007 0-0.010 0-0.362-0.29-0.656-0.651-0.662h-0.001zM38.661 30.236h-10.425v-19.502h10.425v19.501z"></path>
<path d="M9.557 23.046h-1.737v0.854h1.737v-0.854zM21.72 24.753h-1.737v1.706h1.737v-1.706zM19.548 23.046c1.676 0 3.040-1.34 3.040-2.987s-1.364-2.987-3.040-2.987c-1.677 0-3.041 1.339-3.041 2.987s1.364 2.987 3.040 2.987zM19.548 18.565c0.838 0 1.52 0.669 1.52 1.494s-0.682 1.494-1.521 1.494c-0.838 0-1.52-0.67-1.52-1.494s0.681-1.494 1.52-1.494zM31.819 16.216h3.257c1.258 0 2.281-0.956 2.281-2.134s-1.023-2.134-2.281-2.134h-3.257c-1.257 0-2.28 0.957-2.28 2.135s1.023 2.134 2.28 2.134zM36.055 14.083c0 0.504-0.439 0.915-0.978 0.915h-0.977v-1.829h0.977c0.539 0 0.978 0.41 0.978 0.914zM31.819 13.169h0.977v1.829h-0.977c-0.539 0-0.978-0.41-0.978-0.915s0.439-0.914 0.978-0.914zM31.819 23.046h3.257c1.258 0 2.281-1.148 2.281-2.56s-1.023-2.562-2.281-2.562h-3.257c-1.257 0-2.28 1.148-2.28 2.561s1.023 2.56 2.28 2.56zM36.055 20.486c0 0.604-0.439 1.096-0.978 1.096h-0.977v-2.194h0.977c0.539 0 0.978 0.492 0.978 1.097zM31.819 19.387h0.977v2.195h-0.977c-0.539 0-0.978-0.492-0.978-1.097s0.439-1.097 0.978-1.097zM31.819 29.020h3.257c1.258 0 2.281-1.148 2.281-2.56s-1.023-2.561-2.281-2.561h-3.257c-1.257 0-2.28 1.148-2.28 2.56s1.023 2.561 2.28 2.561zM36.055 26.46c0 0.604-0.439 1.096-0.978 1.096h-0.977v-2.194h0.977c0.539 0 0.978 0.492 0.978 1.096zM31.819 25.363h0.977v2.194h-0.977c-0.539 0-0.978-0.492-0.978-1.097s0.439-1.096 0.978-1.096z"></path>
</symbol>
<symbol id="icon-experience" viewBox="0 0 29 32">
<path d="M14.347 0c-1.145 0-2.215 0.521-3.127 1.376s-1.692 2.044-2.342 3.485c-0.137 0.302-0.267 0.615-0.392 0.94-0.238-0.042-0.584-0.088-0.933-0.125l-0.078-0.007c-0.329-0.036-0.728-0.062-1.131-0.072l-0.020-0c-1.119-0.026-2.143 0.087-3.039 0.359-1.196 0.362-2.182 1.028-2.755 2.020s-0.656 2.179-0.372 3.396c0.284 1.216 0.924 2.487 1.847 3.771 0.193 0.269 0.4 0.54 0.618 0.81-0.213 0.263-0.419 0.533-0.617 0.808-0.923 1.284-1.563 2.555-1.847 3.772s-0.2 2.404 0.372 3.396c0.573 0.992 1.559 1.658 2.755 2.020s2.617 0.444 4.19 0.287c0.33-0.033 0.667-0.077 1.009-0.131 0.122 0.317 0.252 0.631 0.393 0.94 0.65 1.441 1.431 2.631 2.342 3.485s1.983 1.376 3.127 1.376c1.145 0 2.215-0.521 3.127-1.376s1.692-2.044 2.343-3.485c0.139-0.31 0.27-0.623 0.391-0.94 0.343 0.054 0.679 0.097 1.009 0.131 1.574 0.157 2.994 0.076 4.19-0.287s2.182-1.028 2.755-2.020 0.656-2.18 0.372-3.396c-0.284-1.216-0.924-2.487-1.847-3.772-0.23-0.319-0.433-0.582-0.643-0.839l0.025 0.031c0.215-0.264 0.421-0.535 0.62-0.809 0.922-1.284 1.563-2.556 1.847-3.772s0.201-2.404-0.372-3.396c-0.572-0.991-1.559-1.657-2.755-2.020-0.897-0.272-1.92-0.385-3.039-0.359-0.373 0.009-0.757 0.033-1.151 0.072-0.33 0.033-0.667 0.077-1.010 0.131-0.166-0.437-0.298-0.747-0.438-1.052l0.046 0.113c-0.65-1.441-1.431-2.631-2.343-3.485s-1.982-1.376-3.127-1.376zM14.347 1.274c0.764 0 1.513 0.336 2.256 1.031s1.452 1.749 2.053 3.080c0.097 0.217 0.191 0.436 0.279 0.657-1.46 0.324-3.007 0.823-4.588 1.488-1.58-0.665-3.127-1.164-4.587-1.488 0.090-0.225 0.183-0.445 0.279-0.657 0.601-1.331 1.31-2.384 2.053-3.080s1.491-1.031 2.256-1.031zM5.921 6.869c0.019-0 0.041-0 0.063-0 0.481 0 0.955 0.025 1.423 0.073l-0.059-0.005c0.233 0.023 0.47 0.052 0.711 0.087-0.449 1.427-0.791 3.015-1.005 4.717-1.367 1.036-2.572 2.127-3.583 3.229-0.148-0.187-0.292-0.378-0.431-0.571-0.852-1.185-1.409-2.327-1.641-3.318s-0.148-1.808 0.234-2.469c0.383-0.662 1.047-1.143 2.022-1.438 0.639-0.194 1.404-0.298 2.265-0.306zM22.773 6.869c0.861 0.007 1.626 0.112 2.265 0.305 0.975 0.296 1.639 0.777 2.022 1.439 0.381 0.662 0.465 1.478 0.234 2.469s-0.789 2.132-1.641 3.318c-0.14 0.193-0.284 0.384-0.431 0.571-1.011-1.102-2.215-2.192-3.582-3.229-0.215-1.702-0.556-3.29-1.006-4.717 0.241-0.035 0.478-0.065 0.71-0.087 0.41-0.044 0.885-0.069 1.366-0.069 0.022 0 0.044 0 0.065 0h-0.003zM19.369 7.254c0.318 0.954 0.606 2.118 0.809 3.311l0.020 0.146c-1.203-0.826-2.59-1.64-4.035-2.356l-0.202-0.091c0.932-0.367 2.072-0.715 3.243-0.979l0.165-0.031zM9.325 7.254c1.336 0.296 2.475 0.644 3.576 1.068l-0.169-0.057c-1.647 0.807-3.034 1.62-4.356 2.522l0.12-0.077c0.223-1.339 0.511-2.503 0.878-3.631l-0.049 0.175zM14.347 8.921c1.266 0.561 2.296 1.094 3.292 1.678l-0.154-0.083c1.151 0.666 2.114 1.301 3.040 1.984l-0.089-0.063c0.121 1.055 0.19 2.277 0.19 3.515s-0.069 2.461-0.203 3.663l0.013-0.148c-0.836 0.619-1.799 1.253-2.796 1.837l-0.154 0.083c-0.843 0.501-1.873 1.035-2.933 1.513l-0.206 0.083c-1.266-0.561-2.296-1.094-3.292-1.678l0.153 0.083c-1.151-0.666-2.114-1.301-3.040-1.983l0.090 0.063c-0.12-1.052-0.189-2.271-0.189-3.506 0-0.003 0-0.007 0-0.010v0.001c0-1.212 0.066-2.39 0.189-3.516 0.836-0.619 1.799-1.254 2.796-1.837l0.154-0.083c0.843-0.501 1.873-1.034 2.933-1.512l0.206-0.083zM14.433 10.839l-3.647 2.251 3.647 2.252 3.648-2.252-3.648-2.251zM6.881 13.507c-0.055 0.732-0.086 1.585-0.086 2.446s0.031 1.714 0.093 2.559l-0.007-0.113c-0.937-0.772-1.78-1.572-2.563-2.427l-0.017-0.019c0.8-0.874 1.642-1.674 2.537-2.412l0.042-0.034zM21.813 13.507c0.937 0.772 1.779 1.572 2.561 2.427l0.017 0.019c-0.799 0.874-1.641 1.673-2.536 2.411l-0.042 0.034c0.055-0.732 0.086-1.585 0.086-2.445s-0.031-1.713-0.093-2.558l0.007 0.113zM9.964 14.080v4.445l3.831 2.364v-4.444l-3.831-2.364zM18.899 14.082l-3.83 2.364v4.444l3.83-2.364v-4.444zM3.471 16.935c1.011 1.103 2.216 2.193 3.583 3.229 0.214 1.702 0.556 3.289 1.005 4.716-0.241 0.035-0.478 0.065-0.71 0.088-1.452 0.145-2.72 0.057-3.693-0.238-0.975-0.295-1.639-0.777-2.022-1.438s-0.465-1.479-0.234-2.47 0.788-2.132 1.64-3.317c0.169-0.236 0.31-0.421 0.455-0.604l-0.025 0.033zM25.223 16.935c0.151 0.191 0.295 0.382 0.431 0.571 0.852 1.185 1.409 2.326 1.641 3.317s0.147 1.808-0.235 2.47c-0.382 0.662-1.047 1.142-2.022 1.438-0.973 0.295-2.24 0.383-3.692 0.238-0.316-0.032-0.559-0.062-0.8-0.098l0.091 0.011c0.449-1.428 0.791-3.016 1.005-4.718 1.367-1.036 2.571-2.126 3.582-3.228zM20.199 21.195c-0.223 1.339-0.511 2.503-0.878 3.632l0.049-0.175c-1.336-0.296-2.476-0.644-3.577-1.068l0.169 0.057c1.647-0.807 3.035-1.621 4.357-2.523l-0.12 0.077zM8.497 21.196c1.202 0.826 2.589 1.639 4.033 2.355l0.202 0.091c-0.932 0.367-2.071 0.714-3.242 0.979l-0.165 0.031c-0.318-0.953-0.605-2.117-0.808-3.31l-0.020-0.146zM14.385 21.254l0.047 0.029 0.047-0.029h-0.093zM14.347 24.374c1.581 0.666 3.127 1.164 4.588 1.489-0.089 0.222-0.182 0.441-0.279 0.659-0.601 1.331-1.311 2.384-2.053 3.080s-1.492 1.031-2.256 1.031c-0.764 0-1.513-0.335-2.255-1.031s-1.452-1.749-2.053-3.080c-0.058-0.116-0.152-0.333-0.241-0.553l-0.038-0.106c1.46-0.325 3.007-0.823 4.588-1.488z"></path>
</symbol>
<symbol id="icon-Facebook-iconr" viewBox="0 0 19 32">
<path d="M17.882 0.236c-1.34-0.15-2.894-0.236-4.468-0.236-0.045 0-0.090 0-0.135 0l0.007-0c-5.091 0-8.253 3.243-8.253 8.461v3.543h-4.276c-0.418 0-0.756 0.338-0.757 0.756v5.827c0 0.418 0.339 0.757 0.757 0.757v0h4.276v11.684c0 0.418 0.339 0.757 0.757 0.757v0h6.020c0.418 0 0.757-0.339 0.757-0.757v0-11.684h4.262c0 0 0 0 0 0 0.383 0 0.7-0.285 0.75-0.654l0-0.004 0.752-5.827c0.004-0.030 0.006-0.064 0.006-0.099 0-0.418-0.339-0.757-0.757-0.757-0 0-0 0-0 0h-5.014v-2.965c0-1.468 0.295-2.081 2.131-2.081h3.087c0.418 0 0.757-0.339 0.757-0.757v0-5.214c0-0 0-0 0-0 0-0.383-0.285-0.7-0.655-0.75l-0.004-0zM17.027 5.443l-2.331 0.002c-3.265 0-3.644 2.052-3.644 3.594v3.723c0 0 0 0 0 0 0 0.417 0.338 0.756 0.755 0.757h4.913l-0.559 4.314h-4.353c-0.418 0-0.757 0.339-0.757 0.757v0 11.681h-4.506v-11.681c0-0.418-0.339-0.757-0.757-0.757v0h-4.275v-4.315h4.274c0.418 0 0.757-0.339 0.757-0.757v0-4.3c0-4.35 2.519-6.947 6.739-6.947 1.527 0 2.906 0.083 3.741 0.156v3.773z"></path>
</symbol>
<symbol id="icon-Instagram-icon" viewBox="0 0 32 32">
<path d="M15.591 8.273c-4.042 0-7.318 3.277-7.318 7.318s3.277 7.318 7.318 7.318v0c4.042 0 7.318-3.277 7.318-7.318s-3.277-7.318-7.318-7.318v0zM15.591 21c-2.987 0-5.409-2.422-5.409-5.409s2.422-5.409 5.409-5.409c2.987 0 5.409 2.422 5.409 5.409v0c-0.009 2.984-2.425 5.4-5.408 5.409h-0.001zM22.591 0h-14.001c-4.745 0.001-8.591 3.847-8.591 8.591v14c0 4.745 3.847 8.591 8.591 8.591v0h14c4.745 0 8.591-3.847 8.591-8.591v0-14.001c-0.001-4.745-3.847-8.591-8.591-8.591-0 0-0.001 0-0.001 0h0zM29.272 22.591c0 3.69-2.991 6.681-6.681 6.681v0h-14.001c-3.69 0-6.681-2.991-6.681-6.681v0-14.001c0-3.69 2.991-6.681 6.681-6.681v0h14.001c3.69 0 6.681 2.991 6.681 6.681v14.001zM25.455 7.318c0 0.878-0.712 1.59-1.59 1.59s-1.59-0.712-1.59-1.59v0c0-0.878 0.712-1.59 1.59-1.59s1.59 0.712 1.59 1.59v0z"></path>
</symbol>
<symbol id="icon-telephone-icon" viewBox="0 0 28 32">
<path d="M26.209 23.222l-0.182-0.227c-1.44-1.821-2.645-2.769-3.678-2.894-0.894-0.122-1.758 0.496-2.676 1.131l-0.981 0.614c-0.097 0.050-0.211 0.097-0.329 0.134l-0.015 0.004c-0.574 0.162-2.022 0.258-2.842-0.493-0.955-0.874-2.436-2.472-3.589-3.87-1.1-1.446-2.31-3.25-2.941-4.385-0.534-0.962-0.087-2.307 0.211-2.806 0.058-0.098 0.136-0.194 0.221-0.29l0.866-0.8c0.013-0.012 0.018-0.028 0.030-0.039 0.008-0.008 0.022-0.006 0.032-0.012 0.781-0.66 1.589-1.338 1.699-2.211 0.13-1.024-0.506-2.41-1.95-4.23l-0.176-0.227c-0.894-1.145-2.246-2.877-4.186-2.59-0.762 0.113-1.443 0.373-2.146 0.814-0.007 0.004-0.011 0.012-0.017 0.016s-0.013 0.005-0.018 0.009l-0.978 0.726c-0.010 0.006-0.016 0.018-0.026 0.026-0.006 0.007-0.018 0.008-0.026 0.016-0.131 0.11-0.242 0.206-0.35 0.304l0.012-0.010c-0.993 0.885-3.142 3.454-1.677 8.205 0.946 3.069 2.898 6.65 5.658 10.377l-0.027 0.022 1.522 1.896 0.012-0.010c2.992 3.539 6.037 6.274 8.827 7.93 1.862 1.106 3.489 1.472 4.827 1.472 1.762 0 3.022-0.633 3.656-1.045l0.397-0.266c0.045-0.031 0.078-0.074 0.11-0.114l0.866-0.653c0.010-0.008 0.016-0.019 0.026-0.028 0.004-0.004 0.011-0.002 0.016-0.006 0.616-0.563 1.043-1.152 1.34-1.851 0.769-1.79-0.608-3.506-1.518-4.641zM26.698 27.424c-0.231 0.543-0.568 1.005-1.056 1.453l-1.289 0.97c-1.168 0.758-3.664 1.696-7.29-0.456-2.79-1.656-5.862-4.456-8.885-8.098l-0.818-1.033c-2.846-3.774-4.848-7.39-5.793-10.453-1.228-3.982 0.319-6.119 1.355-7.042 0.104-0.096 0.21-0.184 0.314-0.272l0.004-0.004 0.939-0.696c0.571-0.361 1.101-0.562 1.71-0.655 1.301-0.196 2.359 1.176 3.136 2.173l0.182 0.232c1.613 2.034 1.768 3.001 1.718 3.396-0.056 0.438-0.722 1-1.31 1.494l-0.083 0.070-0.006 0.010-0.013 0.006-0.894 0.828c-0.006 0.006-0.008 0.012-0.014 0.019s-0.016 0.010-0.022 0.017c-0.128 0.14-0.245 0.294-0.347 0.459l-0.008 0.013c-0.502 0.842-0.977 2.58-0.228 3.926 0.654 1.176 1.898 3.034 3.042 4.534 1.195 1.45 2.72 3.097 3.709 4 0.74 0.676 1.77 0.903 2.662 0.903 0.478 0 0.916-0.066 1.248-0.16 0.21-0.063 0.39-0.136 0.561-0.223l-0.019 0.009c0.011-0.006 0.016-0.015 0.028-0.022 0.006-0.002 0.014-0.001 0.019-0.006l1.039-0.65c0.034-0.022 0.056-0.051 0.084-0.080l0.012 0.014c0.64-0.444 1.37-0.965 1.826-0.889 0.405 0.049 1.323 0.438 2.939 2.478l0.186 0.234c0.787 0.981 1.865 2.325 1.362 3.5z"></path>
</symbol>
</defs>
</svg>
