<svg xmlns="http://www.w3.org/2000/svg" width="33" height="33" fill="none" viewBox="0 0 33 33">
  <path fill="#fff" d="M16.078 8.531a7.547 7.547 0 1 0 0 15.094 7.547 7.547 0 0 0 0-15.094Zm0 13.125a5.578 5.578 0 1 1 5.578-5.578 5.595 5.595 0 0 1-5.578 5.578ZM23.297 0H8.859A8.86 8.86 0 0 0 0 8.86v14.437a8.86 8.86 0 0 0 8.86 8.86h14.437a8.86 8.86 0 0 0 8.86-8.86V8.859A8.86 8.86 0 0 0 23.296 0Zm6.89 23.297a6.89 6.89 0 0 1-6.89 6.89H8.859a6.89 6.89 0 0 1-6.89-6.89V8.859a6.89 6.89 0 0 1 6.89-6.89h14.438a6.89 6.89 0 0 1 6.89 6.89v14.438ZM26.25 7.547a1.64 1.64 0 1 1-3.28 0 1.64 1.64 0 0 1 3.28 0Z"/>
</svg>
