<svg xmlns="http://www.w3.org/2000/svg" width="25" height="25" fill="none" viewBox="0 0 25 25">
  <path fill="#011C44" d="M12.25 6.5a5.75 5.75 0 1 0 0 11.5 5.75 5.75 0 0 0 0-11.5Zm0 10a4.25 4.25 0 1 1 4.25-4.25 4.263 4.263 0 0 1-4.25 4.25ZM17.75 0h-11A6.75 6.75 0 0 0 0 6.75v11a6.75 6.75 0 0 0 6.75 6.75h11a6.75 6.75 0 0 0 6.75-6.75v-11A6.75 6.75 0 0 0 17.75 0ZM23 17.75A5.25 5.25 0 0 1 17.75 23h-11a5.25 5.25 0 0 1-5.25-5.25v-11A5.25 5.25 0 0 1 6.75 1.5h11A5.25 5.25 0 0 1 23 6.75v11Zm-3-12a1.25 1.25 0 1 1-2.5 0 1.25 1.25 0 0 1 2.5 0Z"/>
</svg>
