<svg xmlns="http://www.w3.org/2000/svg" width="35" height="40" fill="none" viewBox="0 0 35 40">
  <path fill="#fff" d="m32.761 29.028-.227-.284c-1.8-2.276-3.306-3.461-4.597-3.617-1.117-.152-2.197.62-3.345 1.414l-1.226.767a2.657 2.657 0 0 1-.43.173c-.717.203-2.528.322-3.553-.616-1.194-1.092-3.045-3.09-4.486-4.837-1.375-1.808-2.887-4.062-3.676-5.481-.667-1.202-.109-2.884.264-3.507.073-.123.17-.243.276-.362l1.082-1c.016-.015.023-.035.037-.049.01-.01.028-.007.04-.015.976-.825 1.986-1.673 2.124-2.764.163-1.28-.633-3.013-2.437-5.288l-.22-.284C11.27 1.847 9.58-.318 7.154.04 6.202.181 5.35.506 4.471 1.058c-.009.005-.014.015-.021.02-.007.006-.016.006-.023.011l-1.223.907c-.012.007-.02.022-.032.033-.008.009-.022.01-.033.02a16.29 16.29 0 0 0-.423.367C1.475 3.522-1.211 6.733.62 12.672c1.183 3.836 3.622 8.313 7.072 12.971l-.034.028 1.903 2.37.015-.012c3.74 4.424 7.546 7.843 11.034 9.913 2.328 1.383 4.361 1.84 6.034 1.84 2.202 0 3.778-.791 4.57-1.306l.496-.332c.056-.039.097-.093.137-.142l1.083-.816c.012-.01.02-.024.032-.035.005-.005.014-.003.02-.008.77-.704 1.304-1.44 1.675-2.314.961-2.238-.76-4.382-1.897-5.801Zm.611 5.252c-.289.679-.71 1.256-1.32 1.816l-1.611 1.213c-1.46.948-4.58 2.12-9.112-.57-3.488-2.07-7.328-5.57-11.106-10.123l-1.022-1.291c-3.558-4.718-6.06-9.237-7.241-13.066-1.535-4.978.399-7.649 1.694-8.802.13-.12.262-.23.392-.34l.005-.005 1.174-.87c.714-.451 1.376-.703 2.137-.819 1.626-.245 2.949 1.47 3.92 2.716l.227.29c2.016 2.542 2.21 3.751 2.148 4.245-.07.547-.903 1.25-1.638 1.867l-.104.087-.008.013-.016.008-1.118 1.035c-.007.007-.01.015-.018.024-.007.009-.02.012-.028.021a3.93 3.93 0 0 0-.443.59c-.628 1.052-1.221 3.225-.285 4.907.817 1.47 2.373 3.792 3.803 5.668 1.494 1.813 3.4 3.871 4.636 5 .925.845 2.213 1.129 3.328 1.129.597 0 1.145-.083 1.56-.2a4.22 4.22 0 0 0 .677-.268c.014-.007.02-.019.035-.028.007-.003.017-.001.024-.007l1.299-.812c.042-.028.07-.064.105-.1l.015.018c.8-.555 1.712-1.206 2.282-1.111.506.061 1.654.548 3.674 3.097l.232.293c.984 1.226 2.331 2.906 1.703 4.375Z"/>
</svg>
